<?xml version="1.0" encoding="UTF-8"?>
<svg xmlns="http://www.w3.org/2000/svg" xmlns:xlink="http://www.w3.org/1999/xlink" width="12pt" height="12pt" viewBox="0 0 12 12" version="1.1">
<g id="surface1">
<path style=" stroke:none;fill-rule:nonzero;fill:rgb(0%,0%,0%);fill-opacity:1;" d="M 11.742188 9.847656 C 11.640625 9.847656 11.546875 9.789062 11.503906 9.691406 C 11.476562 9.621094 10.734375 7.957031 7.957031 7.628906 C 7.378906 7.558594 6.6875 7.519531 5.847656 7.515625 L 5.847656 9.589844 C 5.847656 9.6875 5.796875 9.773438 5.710938 9.816406 C 5.625 9.863281 5.523438 9.855469 5.445312 9.804688 L 0.113281 6.214844 C 0.0429688 6.167969 0 6.085938 0 6 C 0 5.914062 0.0429688 5.835938 0.113281 5.785156 L 5.449219 2.195312 C 5.527344 2.140625 5.628906 2.136719 5.710938 2.183594 C 5.796875 2.230469 5.847656 2.316406 5.847656 2.410156 L 5.847656 4.339844 C 7.007812 4.492188 12 5.386719 12 9.59375 C 12 9.714844 11.914062 9.820312 11.792969 9.84375 C 11.777344 9.847656 11.757812 9.847656 11.742188 9.847656 Z M 11.742188 9.847656 "/>
</g>
</svg>
